# xmcd CD database file
# Copyright (C) 1997 Ti Kan
# 
# Track frame offsets:
#     167
#     40282
#     57310
#     76735
#     92597
#     112237
#     131785
# 
# Disc length: 1995 seconds
# 
# Revision: 1
# Processed by: cddbd v1.4b41PL1 Copyright (c) Steve Scherf et al.
# Submitted via: DiscPlay 4.0.2
# 
DISCID=5a07c907
DTITLE=Stephane Grappelli and Joe Venuti - Venupelli BLues
DYEAR=1900
DGENRE=
TTITLE0=I can't give you anything but love
TTITLE1=My one and only love
TTITLE2=After you've gone
TTITLE3=Undecided
TTITLE4=Venupelli Blues
TTITLE5=Tea for two
TTITLE6=I'll never be the same
EXTD=
EXTT0=
EXTT1=
EXTT2=
EXTT3=
EXTT4=
EXTT5=
EXTT6=
PLAYORDER=
